# ProBuilder 4.5.2
# https://unity3d.com/unity/features/worldbuilding/probuilder
# 12/01/2022 15:35:17

mtllib ./HidingOBJ.mtl
o HidingOBJ

g Hiding_BL
v 8.75 2 9.3125
v 8.75 0 9.3125
v 8.75 2 8.1875
v 8.75 0 8.1875
v 7.75 0 9.3125
v 7.75 2 9.3125
v 7.75 2 8.1875
v 7.75 0 8.1875

vt -9.3125 2
vt -9.3125 0
vt -8.1875 2
vt -8.1875 0
vt 7.75 0
vt 7.75 2
vt 8.75 0
vt 8.75 2
vt -7.75 9.3125
vt -7.75 8.1875
vt -8.75 9.3125
vt -8.75 8.1875
vt -7.75 2
vt -7.75 0
vt -8.75 2
vt -8.75 0
vt 7.75 8.1875
vt 7.75 9.3125
vt 8.75 8.1875
vt 8.75 9.3125

vn 1 0 0
vn 0 0 1
vn 0 1 0
vn 0 0 -1
vn 0 -1 0

usemtl HidingPlace
f 4/4/1 3/3/1 1/1/1 2/2/1
f 2/7/2 1/8/2 6/6/2 5/5/2
f 1/11/3 3/12/3 7/10/3 6/9/3
f 3/15/4 4/16/4 8/14/4 7/13/4
f 4/19/5 2/20/5 5/18/5 8/17/5

