# ProBuilder 4.5.2
# https://unity3d.com/unity/features/worldbuilding/probuilder
# 12/01/2022 15:09:04

mtllib ./Key.mtl
o Key

g Key_RoomRed
v 0.1831999 1.562973 0.4135017
v 0.1228304 1.579149 0.4135017
v 0.1993771 1.623343 0.3052483
v 0.1390066 1.639519 0.3052483
v -0.01075792 0.839109 -0.1635017
v -0.07112837 0.8552853 -0.1635017
v -0.02693415 0.7787386 -0.05524826
v -0.08730459 0.7949148 -0.05524826
v 0.06354332 1.357888 0.497756
v 0.08455658 1.436311 0.544631
v 0.144927 1.420135 0.544631
v 0.1239138 1.341712 0.497756
v 0.1039839 1.508814 0.2271233
v 0.1249971 1.587237 0.2739983
v 0.1088209 1.526867 0.3822517
v 0.08780766 1.448443 0.3353767
v 0.1643543 1.492637 0.2271233
v 0.1853676 1.571061 0.2739983
v 0.1481781 1.432267 0.3353767
v 0.1691914 1.51069 0.3822517
v 0.0667944 1.37002 0.2885017
v 0.1271639 1.353844 0.2885017
v 0.08297062 1.43039 0.1802483
v 0.1433411 1.414214 0.1802483
v 0.001084328 0.8833032 0.00725174
v -0.05928659 0.8994794 0.00725174
v 0.04578018 1.291597 0.2416267
v 0.1061506 1.27542 0.2416267
v 0.01747227 1.185948 0.4310694
v 0.03848553 1.264372 0.4779444
v 0.09885597 1.248196 0.4779444
v 0.07784271 1.169772 0.4310694
v -0.04311037 0.9598498 -0.1010017
v 0.06195641 1.351967 0.1333733
v 0.0172596 0.9436736 -0.1010017
v 0.1223269 1.335791 0.1333733
v 0.01646614 0.9407135 -0.2831926
v -0.04390383 0.9568895 -0.2831926
v -0.1005211 0.7455934 0.09569263
v -0.04015064 0.7294172 0.09569263
v -0.08297014 0.8110911 -0.3342552
v -0.0225997 0.7949148 -0.3342552
v -0.006423473 0.8552852 -0.4425077
v -0.06679392 0.8714615 -0.4425077
v -0.07112837 0.6138037 -0.009494781
v -0.1314988 0.6299799 -0.009494781
v -0.147675 0.5696095 0.09875774
v -0.08730459 0.5534333 0.09875774
v -0.1109881 0.7065265 -0.3967552
v -0.05061769 0.6903503 -0.3967552
v -0.09481192 0.7668969 -0.5050077
v -0.03444147 0.7507206 -0.5050077
v -0.09914637 0.5092392 -0.07199478
v -0.1595168 0.5254154 -0.07199478
v -0.1153226 0.4488688 0.03625774
v -0.1756926 0.465045 0.03625774
v -0.1419668 0.5909135 -0.5019426
v -0.08159637 0.5747373 -0.5019426
v -0.1382132 0.3634409 -0.1230574
v -0.1985836 0.3796172 -0.1230574
v -0.1109881 0.465045 -0.2427483
v -0.1713586 0.4812212 -0.2427483
v -0.1993766 0.3766567 -0.3052483
v -0.1390061 0.3604804 -0.3052483
v -0.1551824 0.5415916 -0.3510017
v -0.09481192 0.5254154 -0.3510017
v -0.1228299 0.4208508 -0.4135017
v -0.1832004 0.437027 -0.4135017

vt 0.2275704 -0.420462
vt 0.2900695 -0.420462
vt 0.2275694 -0.5454623
vt 0.2900695 -0.5454623
vt -0.2275696 -0.5454623
vt -0.2900697 -0.5454623
vt -0.2275696 -0.420462
vt -0.2900697 -0.420462
vt 0.1364082 1.422244
vt 0.1641183 1.511805
vt 0.2238258 1.493332
vt 0.1961157 1.403771
vt 0.2271232 1.484315
vt 0.2739983 1.565505
vt 0.3822517 1.503005
vt 0.3353767 1.421815
vt -0.1961159 1.403771
vt -0.223826 1.493332
vt -0.1641185 1.511806
vt -0.1364083 1.422244
vt -0.3353764 1.421815
vt -0.3822514 1.503005
vt -0.2739979 1.565505
vt -0.2271229 1.484315
vt 0.108698 1.332683
vt 0.1684046 1.31421
vt 0.1802482 1.403125
vt 0.2885017 1.340625
vt -0.1684057 1.314209
vt -0.1086982 1.332683
vt -0.2885015 1.340625
vt -0.180248 1.403125
vt 0.002144141 0.7768428
vt -0.05756385 0.7953164
vt 0.080987 1.243122
vt 0.1406945 1.224649
vt 0.007251746 0.8534858
vt -0.1010017 0.9159858
vt 0.1333733 1.321935
vt 0.2416267 1.259435
vt -0.002143121 0.7768427
vt -0.1406947 1.224648
vt -0.08098716 1.243122
vt 0.05756392 0.7953163
vt -0.007251737 0.8534856
vt -0.2416265 1.259435
vt -0.133373 1.321935
vt 0.1010018 0.9159854
vt -0.2275714 -0.2017131
vt -0.2900715 -0.2017131
vt 0.4310695 1.150058
vt 0.4779446 1.231248
vt -0.4779444 1.231251
vt -0.4310694 1.150061
vt 0.2900698 -0.201715
vt 0.2275698 -0.2017151
vt -0.2275692 -0.2329652
vt -0.2900693 -0.2329652
vt 0.4977559 1.328066
vt 0.5446309 1.409256
vt -0.5446308 1.409256
vt -0.4977558 1.328066
vt 0.2900669 -0.2329647
vt 0.2275669 -0.2329648
vt 0.2422984 1.55304
vt 0.1825918 1.571514
vt -0.3052488 1.61963
vt -0.4135022 1.55713
vt 0.4135022 1.55713
vt 0.3052488 1.61963
vt -0.1825929 1.571513
vt -0.2423004 1.55304
vt 0.2275712 -0.08558238
vt 0.2900708 -0.08558238
vt 0.2275715 -0.267799
vt 0.290071 -0.267799
vt 0.05524849 0.7452329
vt 0.1635018 0.8077331
vt -0.1635017 0.8077327
vt -0.05524825 0.7452326
vt -0.05971529 0.795091
vt 4.198067E-05 0.7767774
vt -0.1131085 0.6208723
vt -0.05335171 0.6025589
vt 0.2831926 0.9129225
vt -0.2831927 0.9129214
vt 0.0956931 0.6941704
vt -0.09569278 0.6941698
vt -0.2900698 0.05112581
vt -0.2275696 0.05112581
vt -0.2900697 -0.1256512
vt -0.2275696 -0.1256512
vt -0.3342552 0.7619801
vt 0.3342552 0.7619809
vt 0.2275681 0.1954995
vt 0.2900677 0.1954995
vt 0.2275674 0.013282
vt 0.2900675 0.01328205
vt 0.02304727 0.7682551
vt 0.08327306 0.7849618
vt 0.07030104 0.5979109
vt 0.1305268 0.6146176
vt 0.009494343 0.5744798
vt -0.009493981 0.5744798
vt -0.1009368 0.7439473
vt -0.04056692 0.727769
vt -0.1481037 0.5679402
vt -0.08773378 0.5517619
vt 0.09875815 0.5119807
vt -0.09875797 0.5119805
vt 0.4425077 0.8244802
vt -0.4425077 0.8244798
vt -0.1314581 0.5564864
vt -0.07175059 0.5380128
vt -0.1684052 0.4370715
vt -0.1086977 0.4185979
vt -0.5050077 0.7162263
vt -0.3967552 0.6537263
vt 0.3967552 0.6537263
vt 0.5050077 0.7162263
vt 0.07175043 0.5380133
vt 0.1314579 0.5564869
vt 0.1086975 0.4185984
vt 0.1684051 0.437072
vt -0.03625775 0.4037262
vt 0.07199478 0.4662263
vt -0.07199476 0.4662262
vt 0.03625777 0.4037264
vt -0.5019428 0.5340346
vt 0.5019427 0.5340346
vt 0.03224222 0.7588293
vt 0.0926121 0.7750077
vt 0.07941002 0.5828227
vt 0.1397799 0.5990011
vt 0.1230575 0.3152845
vt -0.1230582 0.3152848
vt -0.2900697 0.2276539
vt -0.2275701 0.2276539
vt -0.2900701 0.04543642
vt -0.2275701 0.04543648
vt 0.2275685 0.05112658
vt 0.2900686 0.05112658
vt 0.2275685 -0.1256504
vt 0.2900686 -0.1256504
vt 0.2427482 0.4204726
vt -0.2427481 0.4204725
vt -0.2900695 -0.1177368
vt -0.2275694 -0.1177368
vt -0.2900692 -0.2999535
vt -0.2275691 -0.2999535
vt -0.08327281 0.7849625
vt -0.02304702 0.7682558
vt -0.1305266 0.6146184
vt -0.07030079 0.5979117
vt -0.351002 0.4829732
vt 0.3510019 0.4829732
vt 0.009381448 0.7460315
vt 0.06913824 0.764345
vt 0.06277379 0.5718123
vt 0.1225306 0.5901259
vt 0.4135019 0.3747202
vt -0.4135019 0.3747203
vt -0.3052479 0.3122195
vt 0.3052481 0.3122196

vn 0.2241443 0.8365164 0.4999996
vn -0.2241449 -0.8365166 -0.4999992
vn -0.1294097 -0.4829633 0.8660252
vn -0.9659264 0.258817 -1.598631E-06
vn 0.1294106 0.482963 -0.8660252
vn 0.9659263 -0.2588175 1.458683E-06
vn -0.2241455 -0.8365158 -0.5000002
vn 0.224144 0.8365154 0.5000014
vn 0.2587845 0.9657887 -0.01681804
vn 0.1256198 0.4688226 0.8743141
vn -0.2500011 -0.9330125 0.2588189
vn 0.2262875 0.8445216 -0.4853631
vn -0.06698775 -0.2500015 -0.9659253
vn 0.004353625 0.016248 0.9998585
vn -0.004353661 -0.01624801 -0.9998585
vn -0.2262914 -0.8445207 0.4853627
vn 0.2499993 0.933013 -0.2588189
vn 0.2500002 0.9330128 -0.2588185
vn -0.2587835 -0.9657889 0.01682021
vn 0.06698775 0.2500015 0.9659253
vn -0.1256206 -0.4688219 -0.8743143

usemtl Specials
f 37/85/6 35/48/6 5/78/6
f 33/38/4 38/86/4 6/79/4
f 39/87/4 26/37/4 8/80/4
f 25/45/6 40/88/6 7/77/6
f 41/93/4 6/79/4 38/86/4
f 42/94/6 37/85/6 5/78/6
f 45/103/6 7/77/6 40/88/6
f 46/104/4 39/87/4 8/80/4
f 47/109/4 39/87/4 46/104/4
f 40/88/6 48/110/6 45/103/6
f 43/111/6 37/85/6 42/94/6
f 38/86/4 44/112/4 41/93/4
f 57/129/4 49/118/4 51/117/4
f 58/130/6 52/120/6 50/119/6
f 59/135/6 53/126/6 55/125/6
f 60/136/4 56/128/4 54/127/4
f 61/145/6 53/126/6 59/135/6
f 62/146/4 60/136/4 54/127/4
f 65/155/4 49/118/4 57/129/4
f 66/156/6 58/130/6 50/119/6
f 67/161/6 58/130/6 66/156/6
f 57/129/4 68/162/4 65/155/4
f 63/163/4 60/136/4 62/146/4
f 59/135/6 64/164/6 61/145/6
f 4/4/1 2/2/1 1/1/1
f 1/1/1 3/3/1 4/4/1
f 8/8/2 6/6/2 5/5/2
f 5/5/2 7/7/2 8/8/2
f 10/10/3 9/9/3 12/12/3
f 12/12/3 11/11/3 10/10/3
f 14/14/4 13/13/4 16/16/4
f 16/16/4 15/15/4 14/14/4
f 14/19/5 18/18/5 17/17/5
f 17/17/5 13/20/5 14/19/5
f 18/23/6 20/22/6 19/21/6
f 19/21/6 17/24/6 18/23/6
f 16/9/3 21/25/3 22/26/3
f 22/26/3 19/12/3 16/9/3
f 13/13/4 23/27/4 21/28/4
f 21/28/4 16/16/4 13/13/4
f 13/20/5 17/17/5 24/29/5
f 24/29/5 23/30/5 13/20/5
f 17/24/6 19/21/6 22/31/6
f 22/31/6 24/32/6 17/24/6
f 27/35/3 26/34/3 25/33/3
f 25/33/3 28/36/3 27/35/3
f 30/25/3 29/35/3 32/36/3
f 32/36/3 31/26/3 30/25/3
f 34/39/4 33/38/4 26/37/4
f 26/37/4 27/40/4 34/39/4
f 23/27/4 34/39/4 27/40/4
f 27/40/4 21/28/4 23/27/4
f 34/43/5 36/42/5 35/41/5
f 35/41/5 33/44/5 34/43/5
f 23/30/5 24/29/5 36/42/5
f 36/42/5 34/43/5 23/30/5
f 36/47/6 28/46/6 25/45/6
f 25/45/6 35/48/6 36/47/6
f 24/32/6 22/31/6 28/46/6
f 28/46/6 36/47/6 24/32/6
f 29/50/7 27/8/7 28/7/7
f 28/7/7 32/49/7 29/50/7
f 30/52/4 21/28/4 27/40/4
f 27/40/4 29/51/4 30/52/4
f 32/54/6 28/46/6 22/31/6
f 22/31/6 31/53/6 32/54/6
f 31/56/8 22/1/8 21/2/8
f 21/2/8 30/55/8 31/56/8
f 9/58/7 16/8/7 19/7/7
f 19/7/7 12/57/7 9/58/7
f 10/60/4 15/15/4 16/16/4
f 16/16/4 9/59/4 10/60/4
f 12/62/6 19/21/6 20/22/6
f 20/22/6 11/61/6 12/62/6
f 11/64/8 20/1/8 15/2/8
f 15/2/8 10/63/8 11/64/8
f 2/66/3 15/10/3 20/11/3
f 20/11/3 1/65/3 2/66/3
f 1/68/6 20/22/6 18/23/6
f 18/23/6 3/67/6 1/68/6
f 4/70/4 14/14/4 15/15/4
f 15/15/4 2/69/4 4/70/4
f 3/72/5 18/18/5 14/19/5
f 14/19/5 4/71/5 3/72/5
f 38/76/9 33/74/9 35/73/9
f 35/73/9 37/75/9 38/76/9
f 5/78/6 35/48/6 25/45/6
f 25/45/6 7/77/6 5/78/6
f 8/80/4 26/37/4 33/38/4
f 33/38/4 6/79/4 8/80/4
f 40/84/10 25/82/10 26/81/10
f 26/81/10 39/83/10 40/84/10
f 42/92/11 5/90/11 6/89/11
f 6/89/11 41/91/11 42/92/11
f 44/98/12 38/96/12 37/95/12
f 37/95/12 43/97/12 44/98/12
f 46/102/13 8/100/13 7/99/13
f 7/99/13 45/101/13 46/102/13
f 48/108/14 40/106/14 39/105/14
f 39/105/14 47/107/14 48/108/14
f 50/116/3 42/114/3 41/113/3
f 41/113/3 49/115/3 50/116/3
f 49/118/4 41/93/4 44/112/4
f 44/112/4 51/117/4 49/118/4
f 52/120/6 43/111/6 42/94/6
f 42/94/6 50/119/6 52/120/6
f 51/124/5 44/122/5 43/121/5
f 43/121/5 52/123/5 51/124/5
f 54/124/5 46/122/5 45/121/5
f 45/121/5 53/123/5 54/124/5
f 53/126/6 45/103/6 48/110/6
f 48/110/6 55/125/6 53/126/6
f 56/128/4 47/109/4 46/104/4
f 46/104/4 54/127/4 56/128/4
f 55/116/3 48/114/3 47/113/3
f 47/113/3 56/115/3 55/116/3
f 57/134/15 51/132/15 52/131/15
f 52/131/15 58/133/15 57/134/15
f 59/140/16 55/138/16 56/137/16
f 56/137/16 60/139/16 59/140/16
f 62/144/18 54/142/17 53/141/17
f 53/141/17 61/143/17 62/144/18
f 64/150/19 59/148/19 60/147/19
f 60/147/19 63/149/19 64/150/19
f 66/154/20 50/152/20 49/151/20
f 49/151/20 65/153/20 66/154/20
f 68/160/21 57/158/21 58/157/21
f 58/157/21 67/159/21 68/160/21
f 66/156/6 61/145/6 64/164/6
f 64/164/6 67/161/6 66/156/6
f 62/146/4 65/155/4 68/162/4
f 68/162/4 63/163/4 62/146/4
f 61/1/1 66/3/1 65/4/1
f 65/4/1 62/2/1 61/1/1
f 64/7/2 63/8/2 68/6/2
f 68/6/2 67/5/2 64/7/2

